<svg width="38" height="39" viewBox="0 0 38 39" fill="none" xmlns="http://www.w3.org/2000/svg">
<path d="M14.9555 13.212L19.0891 17.353C19.3191 17.5831 19.3191 17.9615 19.0891 18.1916L18.2505 19.0302C18.0204 19.2602 17.6419 19.2602 17.4119 19.0302L13.2783 14.8892L9.91651 18.251L14.0575 22.392C14.2876 22.622 14.2876 23.0005 14.0575 23.2306L13.2189 24.0691C12.9889 24.2992 12.6104 24.2992 12.3803 24.0691L8.23933 19.9207L6.28015 21.8799C4.99629 23.1638 4.38033 24.93 4.57328 26.7333L5.10019 31.4532L0.172542 36.3808C-0.0575139 36.6109 -0.0575139 36.9894 0.172542 37.2194L1.01113 38.058C1.24119 38.2881 1.61967 38.2881 1.84972 38.058L6.76994 33.1378L11.4898 33.6647C13.2635 33.8576 15.0445 33.264 16.3432 31.9578L29.8423 18.4588L19.7718 8.38826L14.9555 13.212ZM37.8275 6.28807L31.9499 0.410518C31.7198 0.180462 31.3414 0.180462 31.1113 0.410518L30.2727 1.24911C30.0427 1.47916 30.0427 1.85764 30.2727 2.0877L32.3729 4.18788L29.0111 7.54967L24.8108 3.34929L23.5492 2.0877C23.3191 1.85764 22.9406 1.85764 22.7106 2.0877L20.1948 4.60347C19.9647 4.83352 19.9647 5.212 20.1948 5.44206L21.4564 6.70365L31.5269 16.789L32.7885 18.0506C33.0185 18.2806 33.397 18.2806 33.6271 18.0506L36.1429 15.5274C36.3729 15.2973 36.3729 14.9189 36.1429 14.6888L30.6883 9.23427L34.0501 5.87249L36.1503 7.97267C36.3803 8.20273 36.7588 8.20273 36.9889 7.97267L37.8275 7.13408C38.0575 6.8966 38.0575 6.52555 37.8275 6.28807Z" fill="#424242"/>
</svg>
